# xmcd CD database file
#
# Track frame offsets:
#	150
#	13143
#	26741
#
# Disc length: 575 seconds
#
# Revision: 0
# Processed by: cddbd v1.5PL3 Copyright (c) Steve Scherf et al.
# Submitted via: CDex 1.51
#
DISCID=1d023d03
DTITLE=The LILAC - 最低の世界　最高のレコード
DYEAR=2004
DGENRE=Rock and Roll
TTITLE0=最低の世界　最高のレコード
TTITLE1=夜光性つむじ風
TTITLE2=ハリケーンブギー
EXTD=YEAR: 2004-01-08
EXTT0=
EXTT1=
EXTT2=
PLAYORDER=
